<?xml version="1.0" encoding="UTF-8"?>
<svg version="1.1" xmlns="http://www.w3.org/2000/svg" width="512" height="512">
<path d="M0 0 C168.96 0 337.92 0 512 0 C512 168.96 512 337.92 512 512 C343.04 512 174.08 512 0 512 C0 343.04 0 174.08 0 0 Z " fill="#B70000" transform="translate(0,0)"/>
<path d="M0 0 C0.65226562 0.13277344 1.30453125 0.26554688 1.9765625 0.40234375 C6.6408287 1.34482822 11.29868454 2.25768703 16 3 C16.33 2.01 16.66 1.02 17 0 C18.52157311 0.28778244 20.04222053 0.58046001 21.5625 0.875 C22.40941406 1.03742188 23.25632813 1.19984375 24.12890625 1.3671875 C27.45447748 2.10017055 30.72563496 3.06446713 34 4 C33.34 11.59 32.68 19.18 32 27 C32.66 27 33.32 27 34 27 C33.85831863 28.43791516 33.71148957 29.8753237 33.5625 31.3125 C33.48128906 32.11300781 33.40007812 32.91351563 33.31640625 33.73828125 C33 36 33 36 32 39 C31.11248047 38.80083984 31.11248047 38.80083984 30.20703125 38.59765625 C29.41683594 38.42105469 28.62664062 38.24445313 27.8125 38.0625 C27.03519531 37.88847656 26.25789063 37.71445312 25.45703125 37.53515625 C22.97736332 36.99506959 20.48852108 36.49770422 18 36 C18.66 28.08 19.32 20.16 20 12 C18.35 12 16.7 12 15 12 C15 16.95 15 21.9 15 27 C15.66 27 16.32 27 17 27 C16.85831863 28.43791516 16.71148957 29.8753237 16.5625 31.3125 C16.48128906 32.11300781 16.40007812 32.91351563 16.31640625 33.73828125 C16 36 16 36 15 39 C14.40832031 38.86722656 13.81664062 38.73445313 13.20703125 38.59765625 C9.14553475 37.68994822 5.08625829 36.7908887 1 36 C1.144375 34.824375 1.28875 33.64875 1.4375 32.4375 C2.19953786 25.64447676 2.57762966 18.82083163 3 12 C1.35 12 -0.3 12 -2 12 C-2 16.95 -2 21.9 -2 27 C-1.34 27 -0.68 27 0 27 C-0.9375 35.03571429 -0.9375 35.03571429 -2 39 C-2.88751953 38.80083984 -2.88751953 38.80083984 -3.79296875 38.59765625 C-4.58316406 38.42105469 -5.37335938 38.24445313 -6.1875 38.0625 C-6.96480469 37.88847656 -7.74210937 37.71445312 -8.54296875 37.53515625 C-11.02263668 36.99506959 -13.51147892 36.49770422 -16 36 C-15.34 28.41 -14.68 20.82 -14 13 C-14.66 13 -15.32 13 -16 13 C-15.34 9.04 -14.68 5.08 -14 1 C-9.39666345 1.76722276 -5.41399647 2.67580106 -1 4 C-0.67 2.68 -0.34 1.36 0 0 Z " fill="#FCFAFA" transform="translate(123,244)"/>
<path d="M0 0 C4.80969648 0.80161608 9.30046712 1.78460356 14 3 C14.125 8.75 14.125 8.75 13 11 C12.9310528 12.37342831 12.91532292 13.75002102 12.9375 15.125 C12.958125 16.40375 12.97875 17.6825 13 19 C14.65 19.66 16.3 20.32 18 21 C18 17.04 18 13.08 18 9 C27.75 5 27.75 5 30 5 C30 10.61 30 16.22 30 22 C28.02 22.66 26.04 23.32 24 24 C24.99 24.391875 25.98 24.78375 27 25.1875 C28.6640625 26.24609375 28.6640625 26.24609375 30 28 C30.55116813 32.37151981 30.34213687 36.61557936 30 41 C30.66 41 31.32 41 32 41 C31.34 44.96 30.68 48.92 30 53 C20.42857143 51 20.42857143 51 16 49 C16.56606279 44.30976546 17.18537505 39.65499974 18 35 C16.35 34.34 14.7 33.68 13 33 C12.67 35.64 12.34 38.28 12 41 C12.66 41 13.32 41 14 41 C13.0625 49.03571429 13.0625 49.03571429 12 53 C11.11248047 52.80083984 11.11248047 52.80083984 10.20703125 52.59765625 C6.14553475 51.68994822 2.08625829 50.7908887 -2 50 C-1.84152588 48.9989624 -1.68305176 47.9979248 -1.51977539 46.96655273 C-0.97700021 43.15564804 -0.79540523 39.38466588 -0.68359375 35.53515625 C-0.66281265 34.85698349 -0.64203156 34.17881073 -0.62062073 33.48008728 C-0.55590691 31.34098169 -0.4966091 29.20176704 -0.4375 27.0625 C-0.39424016 25.60090076 -0.35062366 24.13931203 -0.30664062 22.67773438 C-0.20030749 19.1186016 -0.0988267 15.55935003 0 12 C-0.66 12 -1.32 12 -2 12 C-1.34 8.04 -0.68 4.08 0 0 Z " fill="#FBF8F8" transform="translate(307,230)"/>
<path d="M0 0 C0.33 3.63 0.66 7.26 1 11 C2.4540625 11.1546875 2.4540625 11.1546875 3.9375 11.3125 C8 12 8 12 17 15 C16.67 24.9 16.34 34.8 16 45 C8 49 8 49 4 50 C4 41.09 4 32.18 4 23 C2.68 23 1.36 23 0 23 C0.0407666 23.56920166 0.0815332 24.13840332 0.12353516 24.72485352 C0.30337017 27.33670505 0.46430645 29.94940374 0.625 32.5625 C0.68945312 33.45775391 0.75390625 34.35300781 0.8203125 35.27539062 C1.13783653 40.69314434 0.83935647 44.88209592 -1 50 C-6.05531868 49.22225866 -11.01716284 48.14051606 -16 47 C-15.44687265 42.97007218 -14.8441938 38.97977076 -14 35 C-13.34 35 -12.68 35 -12 35 C-12 24.77 -12 14.54 -12 4 C-3 0 -3 0 0 0 Z " fill="#FBF9F9" transform="translate(424,233)"/>
<path d="M0 0 C3.08524571 0.61579425 6.16778185 1.24424128 9.25 1.875 C10.55904297 2.13603516 10.55904297 2.13603516 11.89453125 2.40234375 C12.73886719 2.57636719 13.58320313 2.75039062 14.453125 2.9296875 C15.61569824 3.16534424 15.61569824 3.16534424 16.80175781 3.40576172 C19.06162086 4.01665761 20.94806161 4.88410522 23 6 C22.85892253 7.45880109 22.71197585 8.91703551 22.5625 10.375 C22.48128906 11.18710938 22.40007812 11.99921875 22.31640625 12.8359375 C22 15 22 15 21 17 C20.34 17 19.68 17 19 17 C19 20.63 19 24.26 19 28 C20.32 28 21.64 28 23 28 C22.34 31.63 21.68 35.26 21 39 C17.28233332 40.23922223 15.56110463 39.57018942 11.8125 38.5625 C10.18248047 38.13130859 10.18248047 38.13130859 8.51953125 37.69140625 C7.68808594 37.46324219 6.85664063 37.23507812 6 37 C6 37.99 6 38.98 6 40 C0.91799892 39.21815368 -3.9486612 38.12251973 -9 37 C-9 27.76 -9 18.52 -9 9 C-6.69 9 -4.38 9 -2 9 C-1.855625 8.071875 -1.71125 7.14375 -1.5625 6.1875 C-1 3 -1 3 0 0 Z " fill="#FBF7F7" transform="translate(351,243)"/>
<path d="M0 0 C5.23108259 0.54462428 10.27583427 1.67444698 15.375 2.9375 C16.09816406 3.10701172 16.82132812 3.27652344 17.56640625 3.45117188 C19.39492069 3.90229692 21.20053133 4.44422005 23 5 C24.35078309 7.70156619 23.62876542 9.07762489 23 12 C22.8599637 13.76452396 22.7559922 15.53219044 22.68359375 17.30078125 C22.64169922 18.27724609 22.59980469 19.25371094 22.55664062 20.25976562 C22.51732422 21.26716797 22.47800781 22.27457031 22.4375 23.3125 C22.39431641 24.33923828 22.35113281 25.36597656 22.30664062 26.42382812 C22.20093175 28.94909569 22.09883532 31.47445562 22 34 C19.36 34.33 16.72 34.66 14 35 C13.34 37.31 12.68 39.62 12 42 C5.61589812 40.93598302 -0.69358173 39.45532729 -7 38 C-6.67 28.76 -6.34 19.52 -6 10 C-4.68 10 -3.36 10 -2 10 C-1.93941406 9.36191406 -1.87882813 8.72382813 -1.81640625 8.06640625 C-1.73261719 7.24011719 -1.64882812 6.41382813 -1.5625 5.5625 C-1.48128906 4.73878906 -1.40007812 3.91507813 -1.31640625 3.06640625 C-1 1 -1 1 0 0 Z " fill="#FBF9F9" transform="translate(241,242)"/>
<path d="M0 0 C3.45850838 0.14233791 6.91676473 0.28878257 10.375 0.4375 C11.34050781 0.47681641 12.30601563 0.51613281 13.30078125 0.55664062 C19.56620227 0.82996436 25.76515586 1.32180397 32 2 C31.67 5.96 31.34 9.92 31 14 C29.7625 14.020625 28.525 14.04125 27.25 14.0625 C26.55390625 14.07410156 25.8578125 14.08570313 25.140625 14.09765625 C23 14 23 14 19 13 C19 20.59 19 28.18 19 36 C18.01 36.495 18.01 36.495 17 37 C18.32 37.33 19.64 37.66 21 38 C20.0625 46.03571429 20.0625 46.03571429 19 50 C18.40832031 49.86722656 17.81664063 49.73445313 17.20703125 49.59765625 C13.14553475 48.68994822 9.08625829 47.7908887 5 47 C5.15847412 45.98542725 5.31694824 44.97085449 5.48022461 43.92553711 C5.95771455 40.31935545 6.19920689 36.82458638 6.31640625 33.19140625 C6.35830078 31.95068359 6.40019531 30.70996094 6.44335938 29.43164062 C6.48267578 28.15482422 6.52199219 26.87800781 6.5625 25.5625 C6.62727539 23.60666992 6.62727539 23.60666992 6.69335938 21.61132812 C6.79897524 18.40764684 6.90108101 15.20389389 7 12 C4.36 12 1.72 12 -1 12 C-0.67 8.04 -0.34 4.08 0 0 Z " fill="#FCF9F9" transform="translate(53,233)"/>
<path d="M0 0 C5.54110713 3.40991208 10.20968493 7.61420043 15 12 C14.57847656 12.50789062 14.15695313 13.01578125 13.72265625 13.5390625 C10.46120644 17.63697826 8.27100562 20.57988765 8 26 C6.02 26.66 4.04 27.32 2 28 C5.3171411 29.4216319 8.44219804 30.39009109 12 31 C11.68950274 32.43793392 11.3765224 33.8753318 11.0625 35.3125 C10.80146484 36.51326172 10.80146484 36.51326172 10.53515625 37.73828125 C10 40 10 40 9 43 C4.11899811 42.26861959 -0.60024152 41.15925104 -5.375 39.9375 C-6.11105469 39.75123047 -6.84710938 39.56496094 -7.60546875 39.37304688 C-9.40419444 38.91752543 -11.20217529 38.4590645 -13 38 C-14.02245821 34.68131409 -14.04443871 31.81716411 -13.87890625 28.359375 C-13.80639648 26.75449219 -13.80639648 26.75449219 -13.73242188 25.1171875 C-13.67634766 24.00601562 -13.62027344 22.89484375 -13.5625 21.75 C-13.51029297 20.62335938 -13.45808594 19.49671875 -13.40429688 18.3359375 C-13.27477014 15.55700028 -13.13980947 12.77843576 -13 10 C-11.02 10 -9.04 10 -7 10 C-6.773125 9.278125 -6.54625 8.55625 -6.3125 7.8125 C-4.75168987 4.46790687 -2.6968713 2.48396041 0 0 Z " fill="#F8F4F4" transform="translate(174,242)"/>
<path d="M0 0 C0.86625 0.309375 1.7325 0.61875 2.625 0.9375 C1.65570815 4.1436192 0.74172959 6.76240562 -1.125 9.5625 C-1.5375 10.34625 -1.95 11.13 -2.375 11.9375 C-1.7248008 14.15484114 -1.7248008 14.15484114 -0.375 15.9375 C1.7698227 20.22714539 1.87839817 24.34937275 0.625 28.9375 C-2.52553397 33.64490161 -7.17971244 37.66241247 -12.375 39.9375 C-16.77287211 40.23879069 -20.27257513 39.49716063 -24.375 37.9375 C-25.375 34.9375 -25.375 34.9375 -24.37890625 32.67578125 C-23.90324219 31.87527344 -23.42757812 31.07476562 -22.9375 30.25 C-22.22787109 29.03763672 -22.22787109 29.03763672 -21.50390625 27.80078125 C-21.13136719 27.18589844 -20.75882813 26.57101562 -20.375 25.9375 C-18.95818366 26.24932069 -17.54155349 26.56198737 -16.125 26.875 C-14.94164062 27.13603516 -14.94164062 27.13603516 -13.734375 27.40234375 C-11.60771327 27.8847157 -9.49057202 28.40860699 -7.375 28.9375 C-9.025 26.6275 -10.675 24.3175 -12.375 21.9375 C-14.685 22.9275 -16.995 23.9175 -19.375 24.9375 C-20.57780161 23.36575925 -21.76181275 21.77962442 -22.9375 20.1875 C-23.92943359 18.86492187 -23.92943359 18.86492187 -24.94140625 17.515625 C-26.375 14.9375 -26.375 14.9375 -26.15771484 12.96264648 C-25.23449983 10.57397883 -24.24069291 9.59223344 -22.28515625 7.95703125 C-21.66576172 7.43302734 -21.04636719 6.90902344 -20.40820312 6.36914062 C-19.43270508 5.56766602 -19.43270508 5.56766602 -18.4375 4.75 C-17.79103516 4.20408203 -17.14457031 3.65816406 -16.47851562 3.09570312 C-10.39756465 -2.00017168 -7.87733688 -2.47990235 0 0 Z " fill="#FAF5F5" transform="translate(217.375,243.0625)"/>
<path d="M0 0 C15.75 1.125 15.75 1.125 22 2 C22 5.96 22 9.92 22 14 C19.03 14 16.06 14 13 14 C13 16.31 13 18.62 13 21 C14.98 21 16.96 21 19 21 C18.34 23.97 17.68 26.94 17 30 C15.68 30 14.36 30 13 30 C13 36.27 13 42.54 13 49 C9.04 48.01 5.08 47.02 1 46 C0.67 30.82 0.34 15.64 0 0 Z " fill="#FAF7F7" transform="translate(268,234)"/>
<path d="M0 0 C0.82886719 0.26683594 1.65773438 0.53367188 2.51171875 0.80859375 C2.84171875 1.46859375 3.17171875 2.12859375 3.51171875 2.80859375 C2.06841744 5.9442366 0.25852424 8.82624291 -1.48828125 11.80859375 C-5.44828125 11.47859375 -9.40828125 11.14859375 -13.48828125 10.80859375 C-12.49828125 12.45859375 -11.50828125 14.10859375 -10.48828125 15.80859375 C-9.74578125 15.45796875 -9.00328125 15.10734375 -8.23828125 14.74609375 C-5.48828125 13.80859375 -5.48828125 13.80859375 -3.36328125 13.87109375 C-0.44109835 15.3321852 0.25634992 16.79570856 1.51171875 19.80859375 C2.46371534 23.11449971 2.60271896 25.52008127 1.51171875 28.80859375 C-2.56487012 33.5409523 -7.29038437 37.34332917 -12.48828125 40.80859375 C-16.97360045 40.40083746 -21.19022532 39.09801053 -25.48828125 37.80859375 C-23.83828125 34.17859375 -22.18828125 30.54859375 -20.48828125 26.80859375 C-16.14363589 27.4168441 -11.81276258 28.07026767 -7.48828125 28.80859375 C-8.80828125 26.82859375 -10.12828125 24.84859375 -11.48828125 22.80859375 C-12.25140625 23.13859375 -13.01453125 23.46859375 -13.80078125 23.80859375 C-16.48828125 24.80859375 -16.48828125 24.80859375 -19.48828125 24.80859375 C-21.3125 22.69140625 -21.3125 22.69140625 -23.17578125 19.93359375 C-23.79839844 19.02867187 -24.42101562 18.12375 -25.0625 17.19140625 C-26.48828125 14.80859375 -26.48828125 14.80859375 -26.48828125 12.80859375 C-23.85778901 10.42617284 -21.08002473 8.2736636 -18.2890625 6.08203125 C-16.13550704 4.33395694 -14.40396798 2.64784178 -12.55078125 0.62109375 C-8.1419195 -1.98823259 -4.88806135 -0.96799247 0 0 Z " fill="#FAF5F5" transform="translate(402.48828125,242.19140625)"/>
<path d="M0 0 C2.20004472 0.41780398 4.38631928 0.9093008 6.5625 1.4375 C7.76003906 1.72496094 8.95757812 2.01242188 10.19140625 2.30859375 C11.11824219 2.53675781 12.04507812 2.76492187 13 3 C13.125 9.75 13.125 9.75 12 12 C11.76970044 14.37123246 11.58880058 16.74741943 11.4375 19.125 C11.35371094 20.40632813 11.26992188 21.68765625 11.18359375 23.0078125 C11.12300781 23.99523437 11.06242187 24.98265625 11 26 C11.99 26 12.98 26 14 26 C13.68950274 27.43793392 13.3765224 28.8753318 13.0625 30.3125 C12.88847656 31.11300781 12.71445312 31.91351563 12.53515625 32.73828125 C12 35 12 35 11 38 C9.41642541 37.68872484 7.83315007 37.37592711 6.25 37.0625 C5.36828125 36.88847656 4.4865625 36.71445312 3.578125 36.53515625 C1.36764947 36.07631512 -0.81512068 35.56663926 -3 35 C-2.84660156 34.19304687 -2.69320313 33.38609375 -2.53515625 32.5546875 C-1.9111048 28.40952821 -1.65372796 24.3077704 -1.4375 20.125 C-1.39431641 19.34125 -1.35113281 18.5575 -1.30664062 17.75 C-1.20146649 15.83349351 -1.10032075 13.91676667 -1 12 C-1.66 12 -2.32 12 -3 12 C-2.69230293 10.18667846 -2.37870936 8.37435655 -2.0625 6.5625 C-1.80146484 5.04849609 -1.80146484 5.04849609 -1.53515625 3.50390625 C-1 1 -1 1 0 0 Z " fill="#FBF7F7" transform="translate(446,245)"/>
<path d="M0 0 C1.77131561 0.30975468 3.54203778 0.62290425 5.3125 0.9375 C6.79169922 1.19853516 6.79169922 1.19853516 8.30078125 1.46484375 C11 2 11 2 14 3 C13.34 10.59 12.68 18.18 12 26 C12.66 26 13.32 26 14 26 C13.71905418 27.8141927 13.42493567 29.62635001 13.125 31.4375 C12.88136719 32.95150391 12.88136719 32.95150391 12.6328125 34.49609375 C12.42398438 35.32238281 12.21515625 36.14867187 12 37 C9.01316063 38.49341969 7.04839022 37.40648676 3.875 36.5625 C2.77929688 36.27503906 1.68359375 35.98757813 0.5546875 35.69140625 C-0.28835937 35.46324219 -1.13140625 35.23507812 -2 35 C-1.855625 33.80375 -1.71125 32.6075 -1.5625 31.375 C-0.8409539 24.93262415 -0.43236264 18.46704116 0 12 C-0.66 12 -1.32 12 -2 12 C-1.85831863 10.56208484 -1.71148957 9.1246763 -1.5625 7.6875 C-1.48128906 6.88699219 -1.40007812 6.08648437 -1.31640625 5.26171875 C-1 3 -1 3 0 0 Z " fill="#FBF8F8" transform="translate(90,245)"/>
<path d="M0 0 C4.69564393 3.31457218 7.72469104 7.36279281 11 12 C12.98 11.01 14.96 10.02 17 9 C22 14.75 22 14.75 22 17 C17.59139921 16.47694567 13.36255922 15.87251184 9 15 C7.35 18.3 5.7 21.6 4 25 C2.68 25 1.36 25 0 25 C-0.33 27.97 -0.66 30.94 -1 34 C-5.82995456 33.25458969 -10.56193863 32.25752691 -15.3125 31.125 C-16.04017578 30.96386719 -16.76785156 30.80273438 -17.51757812 30.63671875 C-19.61328125 30.1328125 -19.61328125 30.1328125 -23 29 C-23.33 28.01 -23.66 27.02 -24 26 C-17.42465139 26.62031591 -11.33307408 28.14897283 -5 30 C-4.86722656 29.38511719 -4.73445313 28.77023437 -4.59765625 28.13671875 C-4.33275391 26.92435547 -4.33275391 26.92435547 -4.0625 25.6875 C-3.80146484 24.48673828 -3.80146484 24.48673828 -3.53515625 23.26171875 C-3 21 -3 21 -2 18 C-2.61488281 17.95101563 -3.22976562 17.90203125 -3.86328125 17.8515625 C-4.67152344 17.77679688 -5.47976562 17.70203125 -6.3125 17.625 C-7.11300781 17.55539062 -7.91351563 17.48578125 -8.73828125 17.4140625 C-11 17 -11 17 -14 15 C-11.36 14.34 -8.72 13.68 -6 13 C-6.12375 12.154375 -6.2475 11.30875 -6.375 10.4375 C-5.84950401 5.62045343 -3.32593432 3.34573155 0 0 Z " fill="#B50505" transform="translate(188,255)"/>
<path d="M0 0 C0.33 0 0.66 0 1 0 C1 10.23 1 20.46 1 31 C0.34 31 -0.32 31 -1 31 C-1 32.65 -1 34.3 -1 36 C-1.66 35.67 -2.32 35.34 -3 35 C-3.05285156 35.56460938 -3.10570312 36.12921875 -3.16015625 36.7109375 C-4.39536041 40.07758697 -6.63438907 41.44520763 -9.4375 43.625 C-13.35173724 46.66283872 -13.35173724 46.66283872 -17 50 C-21.75890208 49.68794085 -25.64918266 49.03944563 -30 47 C-30 46.34 -30 45.68 -30 45 C-28.1746875 45.3403125 -28.1746875 45.3403125 -26.3125 45.6875 C-19.70104813 45.70862285 -15.15931871 41.36713428 -10.58984375 37.02734375 C-8.08864232 34.10361658 -7.10805137 32.89408594 -7 29.125 C-7.55547187 25.60911555 -8.80686073 22.83280489 -11 20 C-11.5775 20.144375 -12.155 20.28875 -12.75 20.4375 C-15.875 21.21875 -15.875 21.21875 -19 22 C-20.32 19.69 -21.64 17.38 -23 15 C-18.71 15.33 -14.42 15.66 -10 16 C-9.01 14.02 -8.02 12.04 -7 10 C-2.125 10.875 -2.125 10.875 -1 12 C-0.67 8.04 -0.34 4.08 0 0 Z " fill="#B50A0A" transform="translate(411,237)"/>
<path d="M0 0 C1.32 0.33 2.64 0.66 4 1 C4 1.66 4 2.32 4 3 C3.34 3 2.68 3 2 3 C4.64 6.96 7.28 10.92 10 15 C11.65 14.01 13.3 13.02 15 12 C19.39158329 13.4638611 19.87947433 15.97831338 22 20 C17.13103697 19.40380045 12.67209049 18.43023178 8 17 C7.71125 17.9075 7.4225 18.815 7.125 19.75 C6.23468224 22.32202908 5.28505587 24.61346766 4 27 C3.34 27 2.68 27 2 27 C1.67 29.64 1.34 32.28 1 35 C0.175 34.855625 -0.65 34.71125 -1.5 34.5625 C-5.32686278 33.94746848 -9.15216707 33.46439363 -13 33 C-13.33 33.66 -13.66 34.32 -14 35 C-14.88751953 34.80083984 -14.88751953 34.80083984 -15.79296875 34.59765625 C-19.85446525 33.68994822 -23.91374171 32.7908887 -28 32 C-28 31.01 -28 30.02 -28 29 C-20.57142857 30 -20.57142857 30 -17 31 C-17 30.01 -17 29.02 -17 28 C-12.38 28.66 -7.76 29.32 -3 30 C-2.01 26.37 -1.02 22.74 0 19 C-1.32 19 -2.64 19 -4 19 C-4 15.37 -4 11.74 -4 8 C-3.34 8 -2.68 8 -2 8 C-1.34 5.36 -0.68 2.72 0 0 Z " fill="#B20707" transform="translate(374,252)"/>
<path d="M0 0 C0.99 0 1.98 0 3 0 C3.80844915 9.68695326 4.13062293 19.34291954 4.1875 29.0625 C4.20039063 30.13234131 4.21328125 31.20218262 4.2265625 32.30444336 C4.23365069 37.93999855 3.90825141 42.68254055 2 48 C0.04096255 47.52372025 -1.91721097 47.04388577 -3.875 46.5625 C-4.96554687 46.29566406 -6.05609375 46.02882813 -7.1796875 45.75390625 C-10 45 -10 45 -12 44 C-12 43.34 -12 42.68 -12 42 C-4.375 42.875 -4.375 42.875 -1 44 C-0.93941406 43.38511719 -0.87882812 42.77023437 -0.81640625 42.13671875 C-0.73261719 41.32847656 -0.64882813 40.52023437 -0.5625 39.6875 C-0.48128906 38.88699219 -0.40007812 38.08648437 -0.31640625 37.26171875 C0 35 0 35 1 32 C0.34 32 -0.32 32 -1 32 C-1 27.71 -1 23.42 -1 19 C-3.475 18.01 -3.475 18.01 -6 17 C-6.66 16.34 -7.32 15.68 -8 15 C-5.35261084 13.5393715 -4.10551666 13 -1 13 C-1.01160156 12.14535156 -1.02320313 11.29070312 -1.03515625 10.41015625 C-1.04417969 9.30542969 -1.05320312 8.20070312 -1.0625 7.0625 C-1.07410156 5.96035156 -1.08570313 4.85820312 -1.09765625 3.72265625 C-1 1 -1 1 0 0 Z " fill="#A70101" transform="translate(338,239)"/>
<path d="M0 0 C1.32 0.33 2.64 0.66 4 1 C3.67 10.24 3.34 19.48 3 29 C0.03 29 -2.94 29 -6 29 C-6.33 31.31 -6.66 33.62 -7 36 C-11.02004912 37.57966666 -14.15314668 36.40386686 -18.1875 35.25 C-19.43917969 34.90453125 -20.69085938 34.5590625 -21.98046875 34.203125 C-22.97691406 33.80609375 -23.97335938 33.4090625 -25 33 C-25.33 32.01 -25.66 31.02 -26 30 C-20.72684667 30.4452885 -15.98229776 31.08373163 -11 33 C-10.855625 31.865625 -10.71125 30.73125 -10.5625 29.5625 C-10 26 -10 26 -9 25 C-6.32941149 24.85884839 -3.67567762 24.95752893 -1 25 C-1.00785522 24.02389771 -1.00785522 24.02389771 -1.01586914 23.02807617 C-1.03664938 20.08122726 -1.0496635 17.13439377 -1.0625 14.1875 C-1.07087891 13.16333984 -1.07925781 12.13917969 -1.08789062 11.08398438 C-1.09272461 9.60961914 -1.09272461 9.60961914 -1.09765625 8.10546875 C-1.10551147 6.74651489 -1.10551147 6.74651489 -1.11352539 5.36010742 C-1 3 -1 3 0 0 Z " fill="#3D0808" transform="translate(264,251)"/>
<path d="M0 0 C0.99 0 1.98 0 3 0 C3 1.65 3 3.3 3 5 C3.66 5 4.32 5 5 5 C5.51283997 15.96907719 4.50753329 24.47740012 1 35 C-3.62 34.01 -8.24 33.02 -13 32 C-13 31.01 -13 30.02 -13 29 C-9.7 29.33 -6.4 29.66 -3 30 C-1.515 24.555 -1.515 24.555 0 19 C-0.66 19 -1.32 19 -2 19 C-2.05394705 16.39555652 -2.09364469 13.79223002 -2.125 11.1875 C-2.14175781 10.44951172 -2.15851563 9.71152344 -2.17578125 8.95117188 C-2.21074628 5.08753574 -2.19397555 3.29096332 0 0 Z " fill="#3D0B0B" transform="translate(104,252)"/>
<path d="M0 0 C1.32 0 2.64 0 4 0 C4.08849232 3.77068057 4.14088454 7.54108765 4.1875 11.3125 C4.21263672 12.36501953 4.23777344 13.41753906 4.26367188 14.50195312 C4.33179499 21.88195681 3.22624848 27.9589779 1 35 C-3.62 34.01 -8.24 33.02 -13 32 C-13 31.01 -13 30.02 -13 29 C-5.375 29.875 -5.375 29.875 -2 31 C-1.34 27.04 -0.68 23.08 0 19 C-0.66 19 -1.32 19 -2 19 C-2.05394705 16.39555652 -2.09364469 13.79223002 -2.125 11.1875 C-2.14175781 10.44951172 -2.15851563 9.71152344 -2.17578125 8.95117188 C-2.21074628 5.08753574 -2.19397555 3.29096332 0 0 Z " fill="#360202" transform="translate(157,252)"/>
<path d="M0 0 C1.32 0 2.64 0 4 0 C4.02712066 1.43739513 4.04645067 2.87493863 4.0625 4.3125 C4.07410156 5.11300781 4.08570312 5.91351563 4.09765625 6.73828125 C4 9 4 9 3 12 C-0.63 12 -4.26 12 -8 12 C-8 19.59 -8 27.18 -8 35 C-8.66 35 -9.32 35 -10 35 C-10 34.01 -10 33.02 -10 32 C-11.98 31.67 -13.96 31.34 -16 31 C-14.68 30.67 -13.36 30.34 -12 30 C-12 22.41 -12 14.82 -12 7 C-8.04 7.33 -4.08 7.66 0 8 C0 5.36 0 2.72 0 0 Z " fill="#440D0D" transform="translate(84,239)"/>
<path d="M0 0 C1.32 0 2.64 0 4 0 C3.67 1.98 3.34 3.96 3 6 C3.66 6 4.32 6 5 6 C5.65535686 27.1413269 5.65535686 27.1413269 2 32 C-1.34516987 34.23011325 -4.92104119 36 -9 36 C-9 34.35 -9 32.7 -9 31 C-6.36 29.68 -3.72 28.36 -1 27 C-0.67 18.09 -0.34 9.18 0 0 Z " fill="#4A0404" transform="translate(440,251)"/>
<path d="M0 0 C1.32 0.33 2.64 0.66 4 1 C3.84660156 1.81726563 3.69320313 2.63453125 3.53515625 3.4765625 C2.9322218 7.44624772 2.65842036 11.36946033 2.4375 15.375 C2.39431641 16.11105469 2.35113281 16.84710938 2.30664062 17.60546875 C2.20156201 19.40348068 2.10037907 21.20171958 2 23 C2.66 23 3.32 23 4 23 C3.34 26.96 2.68 30.92 2 35 C-7.57142857 33 -7.57142857 33 -12 31 C-12 30.34 -12 29.68 -12 29 C-8.53058454 29.45822468 -5.32604951 29.89131683 -2 31 C-1.86722656 30.38511719 -1.73445313 29.77023437 -1.59765625 29.13671875 C-1.33275391 27.92435547 -1.33275391 27.92435547 -1.0625 26.6875 C-0.88847656 25.88699219 -0.71445312 25.08648437 -0.53515625 24.26171875 C0 22 0 22 1 19 C0.01 19 -0.98 19 -2 19 C-2.05428973 16.77110504 -2.09292338 14.54182529 -2.125 12.3125 C-2.14820313 11.07113281 -2.17140625 9.82976562 -2.1953125 8.55078125 C-2.01032021 5.18762143 -1.45767895 3.0014413 0 0 Z " fill="#3E0808" transform="translate(459,252)"/>
<path d="M0 0 C2.59520497 2.22446141 3.54850431 3.6991955 3.8125 7.125 C3.72778182 10.58150154 3.16477869 11.80484311 0.90234375 14.484375 C-1.65379643 16.78828927 -4.25355216 18.92768026 -7 21 C-8.06541016 21.87591797 -8.06541016 21.87591797 -9.15234375 22.76953125 C-11 24 -11 24 -13.8125 23.8125 C-17.23331426 22.94052774 -20.61863407 22.01440978 -24 21 C-23.67 20.34 -23.34 19.68 -23 19 C-21.72125 19.185625 -20.4425 19.37125 -19.125 19.5625 C-14.24461247 19.62437496 -12.09394248 17.81122147 -8.5625 14.5625 C-7.73878906 13.73878906 -6.91507813 12.91507812 -6.06640625 12.06640625 C-4 10 -4 10 -2 9 C-1.31270746 6.88153715 -1.31270746 6.88153715 -0.875 4.4375 C-0.70742187 3.61121094 -0.53984375 2.78492188 -0.3671875 1.93359375 C-0.24601562 1.29550781 -0.12484375 0.65742188 0 0 Z " fill="#390505" transform="translate(219,263)"/>
<path d="M0 0 C1.65 0 3.3 0 5 0 C5.19676277 8.29683005 5.25943749 15.95075394 3 24 C3.66 24 4.32 24 5 24 C4.34 26.31 3.68 28.62 3 31 C-1.62 30.01 -6.24 29.02 -11 28 C-11 27.01 -11 26.02 -11 25 C-3.375 25.875 -3.375 25.875 0 27 C0.66 23.04 1.32 19.08 2 15 C1.34 15 0.68 15 0 15 C0 10.05 0 5.1 0 0 Z " fill="#350808" transform="translate(138,256)"/>
<path d="M0 0 C0.99 0.33 1.98 0.66 3 1 C3.71567543 4.86753894 3.91446171 8.1543178 3 12 C-0.24858531 15.6379888 -3.98862824 18.25949827 -8 21 C-8.66 21.66 -9.32 22.32 -10 23 C-14.75890208 22.68794085 -18.64918266 22.03944563 -23 20 C-23 19.34 -23 18.68 -23 18 C-21.1746875 18.3403125 -21.1746875 18.3403125 -19.3125 18.6875 C-13.98053044 18.72151575 -10.92920273 16.20740043 -7 12.9375 C-6.42419189 12.47239014 -5.84838379 12.00728027 -5.25512695 11.52807617 C-2.07958623 8.72635228 -1.09401129 7.41591604 -0.125 3.12890625 C-0.08375 2.09636719 -0.0425 1.06382812 0 0 Z " fill="#360303" transform="translate(404,264)"/>
<path d="M0 0 C1.32 0 2.64 0 4 0 C4.05804281 4.41661151 4.09361104 8.83312496 4.125 13.25 C4.14175781 14.50425781 4.15851563 15.75851562 4.17578125 17.05078125 C4.18222656 18.25605469 4.18867188 19.46132813 4.1953125 20.703125 C4.20578613 21.81333008 4.21625977 22.92353516 4.22705078 24.06738281 C4.00468334 26.93950942 3.49281575 28.57223735 2 31 C1.11248047 30.80083984 1.11248047 30.80083984 0.20703125 30.59765625 C-3.85446525 29.68994822 -7.91374171 28.7908887 -12 28 C-12 27.01 -12 26.02 -12 25 C-8.27091669 25.50199198 -4.63852314 26.04207023 -1 27 C0.06996173 17.98175113 0.10234659 9.06335876 0 0 Z " fill="#4F1616" transform="translate(424,256)"/>
<path d="M0 0 C1.65 0 3.3 0 5 0 C5.19676277 8.29683005 5.25943749 15.95075394 3 24 C3.66 24.33 4.32 24.66 5 25 C4.34 26.98 3.68 28.96 3 31 C1.01739401 30.57835981 -0.96107245 30.13721222 -2.9375 29.6875 C-4.03964844 29.44386719 -5.14179687 29.20023437 -6.27734375 28.94921875 C-7.17582031 28.63597656 -8.07429688 28.32273437 -9 28 C-9.33 27.01 -9.66 26.02 -10 25 C-5.05 25.99 -5.05 25.99 0 27 C0.144375 25.7625 0.28875 24.525 0.4375 23.25 C0.78688502 20.43495501 1.20379366 17.7298503 2 15 C1.34 15 0.68 15 0 15 C0 10.05 0 5.1 0 0 Z " fill="#530E0E" transform="translate(121,256)"/>
<path d="M0 0 C1.32 0.33 2.64 0.66 4 1 C3.34 4.63 2.68 8.26 2 12 C0.7625 11.7834375 0.7625 11.7834375 -0.5 11.5625 C-4.32686278 10.94746848 -8.15216707 10.46439363 -12 10 C-12.33 10.66 -12.66 11.32 -13 12 C-13.59167969 11.86722656 -14.18335938 11.73445313 -14.79296875 11.59765625 C-18.85446525 10.68994822 -22.91374171 9.7908887 -27 9 C-27 8.01 -27 7.02 -27 6 C-19.57142857 7 -19.57142857 7 -16 8 C-16 7.01 -16 6.02 -16 5 C-11.38 5.66 -6.76 6.32 -2 7 C-1.34 4.69 -0.68 2.38 0 0 Z " fill="#3A0808" transform="translate(373,275)"/>
<path d="M0 0 C1.32 0 2.64 0 4 0 C3.67 2.97 3.34 5.94 3 9 C1.35 9 -0.3 9 -2 9 C-2 14.94 -2 20.88 -2 27 C-3.44375 26.855625 -4.8875 26.71125 -6.375 26.5625 C-7.59316406 26.44068359 -7.59316406 26.44068359 -8.8359375 26.31640625 C-11 26 -11 26 -13 25 C-13 24.01 -13 23.02 -13 22 C-10.36 22.66 -7.72 23.32 -5 24 C-5 17.73 -5 11.46 -5 5 C-3.68 5 -2.36 5 -1 5 C-0.67 3.35 -0.34 1.7 0 0 Z " fill="#340202" transform="translate(286,259)"/>
<path d="M0 0 C1.98 0.99 3.96 1.98 6 3 C5.88525534 5.54250021 5.7585303 8.08347338 5.625 10.625 C5.57859375 11.69427734 5.57859375 11.69427734 5.53125 12.78515625 C5.28979845 17.17152608 4.60657269 20.8594834 3 25 C1.01739401 24.57835981 -0.96107245 24.13721222 -2.9375 23.6875 C-4.03964844 23.44386719 -5.14179688 23.20023437 -6.27734375 22.94921875 C-7.17582031 22.63597656 -8.07429688 22.32273437 -9 22 C-9.33 21.01 -9.66 20.02 -10 19 C-5.05 19.99 -5.05 19.99 0 21 C0.144375 19.7625 0.28875 18.525 0.4375 17.25 C0.78688502 14.43495501 1.20379366 11.7298503 2 9 C1.34 9 0.68 9 0 9 C0 6.03 0 3.06 0 0 Z " fill="#7A1F1F" transform="translate(319,262)"/>
<path d="M0 0 C0.99 0.33 1.98 0.66 3 1 C3 5.29 3 9.58 3 14 C3.66 14 4.32 14 5 14 C4.88601335 15.62580966 4.75844341 17.25067157 4.625 18.875 C4.55539062 19.77992188 4.48578125 20.68484375 4.4140625 21.6171875 C4 24 4 24 2 26 C0.20763933 25.52343588 -1.58386897 25.04366502 -3.375 24.5625 C-4.37273437 24.29566406 -5.37046875 24.02882813 -6.3984375 23.75390625 C-9 23 -9 23 -11 22 C-11 21.34 -11 20.68 -11 20 C-3.375 20.875 -3.375 20.875 0 22 C0.06058594 21.38511719 0.12117188 20.77023437 0.18359375 20.13671875 C0.26738281 19.32847656 0.35117187 18.52023437 0.4375 17.6875 C0.51871094 16.88699219 0.59992188 16.08648437 0.68359375 15.26171875 C1 13 1 13 2 10 C1.34 10 0.68 10 0 10 C0 6.7 0 3.4 0 0 Z " fill="#370606" transform="translate(337,261)"/>
<path d="M0 0 C1.65588254 0.22779337 3.30152831 0.53231439 4.9375 0.875 C6.28134766 1.14957031 6.28134766 1.14957031 7.65234375 1.4296875 C10 2 10 2 12 3 C11.34 5.64 10.68 8.28 10 11 C5.97007218 10.44687265 1.97977076 9.8441938 -2 9 C-1.125 1.125 -1.125 1.125 0 0 Z " fill="#F6EBEB" transform="translate(91,232)"/>
<path d="M0 0 C1.43793392 0.31049726 2.8753318 0.6234776 4.3125 0.9375 C5.11300781 1.11152344 5.91351563 1.28554687 6.73828125 1.46484375 C9 2 9 2 12 3 C11.125 8.75 11.125 8.75 10 11 C8.741875 10.87625 7.48375 10.7525 6.1875 10.625 C5.47980469 10.55539063 4.77210938 10.48578125 4.04296875 10.4140625 C2 10 2 10 -1 8 C-0.67 5.36 -0.34 2.72 0 0 Z " fill="#F9F0F0" transform="translate(446,232)"/>
<path d="M0 0 C1.32 0.33 2.64 0.66 4 1 C3.34 4.63 2.68 8.26 2 12 C-2.82995456 11.25458969 -7.56193863 10.25752691 -12.3125 9.125 C-13.04017578 8.96386719 -13.76785156 8.80273438 -14.51757812 8.63671875 C-16.61328125 8.1328125 -16.61328125 8.1328125 -20 7 C-20.33 6.01 -20.66 5.02 -21 4 C-14.42465139 4.62031591 -8.33307408 6.14897283 -2 8 C-1.855625 6.865625 -1.71125 5.73125 -1.5625 4.5625 C-1 1 -1 1 0 0 Z " fill="#390808" transform="translate(185,277)"/>
<path d="M0 0 C2.475 0.495 2.475 0.495 5 1 C3.77472971 5.05281712 2.30119506 8.44360764 0 12 C-0.5775 11.649375 -1.155 11.29875 -1.75 10.9375 C-4.43358372 9.81934012 -5.30609104 10.07396879 -8 11 C-9.33333333 11.33333333 -10.66666667 11.66666667 -12 12 C-13.98 8.535 -13.98 8.535 -16 5 C-11.71 5.33 -7.42 5.66 -3 6 C-2.01 4.02 -1.02 2.04 0 0 Z " fill="#370404" transform="translate(404,247)"/>
<path d="M0 0 C1.32 1.32 2.64 2.64 4 4 C3.3503125 4.77923828 3.3503125 4.77923828 2.6875 5.57421875 C2.130625 6.27160156 1.57375 6.96898437 1 7.6875 C0.443125 8.37199219 -0.11375 9.05648438 -0.6875 9.76171875 C-2.22741897 12.38783056 -2.25168194 14.00603356 -2 17 C-3.4370809 17.05422947 -4.87475462 17.09289723 -6.3125 17.125 C-7.51326172 17.15980469 -7.51326172 17.15980469 -8.73828125 17.1953125 C-11 17 -11 17 -14 15 C-11.36 14.34 -8.72 13.68 -6 13 C-6.12375 12.154375 -6.2475 11.30875 -6.375 10.4375 C-5.84950401 5.62045343 -3.32593432 3.34573155 0 0 Z " fill="#380909" transform="translate(188,255)"/>
<path d="M0 0 C1.32 0 2.64 0 4 0 C3.67 3.96 3.34 7.92 3 12 C0.03 11.67 -2.94 11.34 -6 11 C-6 12.32 -6 13.64 -6 15 C-6.99 15 -7.98 15 -9 15 C-9 12.69 -9 10.38 -9 8 C-6.03 8 -3.06 8 0 8 C0 5.36 0 2.72 0 0 Z " fill="#310000" transform="translate(290,240)"/>
<path d="M0 0 C1.65 0 3.3 0 5 0 C4.71905418 1.8141927 4.42493567 3.62635001 4.125 5.4375 C3.96257812 6.44683594 3.80015625 7.45617187 3.6328125 8.49609375 C3.42398438 9.32238281 3.21515625 10.14867187 3 11 C0.13312908 12.43343546 -1.50563683 11.56303792 -4.5625 10.75 C-5.55378906 10.49734375 -6.54507813 10.2446875 -7.56640625 9.984375 C-8.36949219 9.65953125 -9.17257813 9.3346875 -10 9 C-10.33 8.01 -10.66 7.02 -11 6 C-6.05 6.99 -6.05 6.99 -1 8 C-0.67 5.36 -0.34 2.72 0 0 Z " fill="#390707" transform="translate(73,275)"/>
<path d="M0 0 C1.32 0.33 2.64 0.66 4 1 C4 1.66 4 2.32 4 3 C3.34 3 2.68 3 2 3 C2.20625 3.556875 2.4125 4.11375 2.625 4.6875 C3.10695211 7.659538 2.26565028 9.31979941 1 12 C0.34 12 -0.32 12 -1 12 C-1 14.31 -1 16.62 -1 19 C-1.99 19 -2.98 19 -4 19 C-4 15.37 -4 11.74 -4 8 C-3.34 8 -2.68 8 -2 8 C-1.34 5.36 -0.68 2.72 0 0 Z " fill="#360606" transform="translate(374,252)"/>
<path d="M0 0 C0.99 0 1.98 0 3 0 C3 5.28 3 10.56 3 16 C-4 17 -4 17 -5.9375 15.5625 C-6.4634375 14.7890625 -6.4634375 14.7890625 -7 14 C-4.35261084 12.5393715 -3.10551666 12 0 12 C0 8.04 0 4.08 0 0 Z " fill="#330606" transform="translate(337,240)"/>
<path d="M0 0 C1.32 0 2.64 0 4 0 C4 4.62 4 9.24 4 14 C1.525 13.01 1.525 13.01 -1 12 C-1.33 12.66 -1.66 13.32 -2 14 C-2.05437607 12.41705218 -2.09296271 10.83355744 -2.125 9.25 C-2.14820313 8.36828125 -2.17140625 7.4865625 -2.1953125 6.578125 C-1.99139502 3.8864142 -1.36551721 2.30095026 0 0 Z " fill="#5C0F0F" transform="translate(321,237)"/>
<path d="M0 0 C0.99 0 1.98 0 3 0 C2.855625 1.2375 2.71125 2.475 2.5625 3.75 C1.92166738 9.49002931 1.4578378 15.24293318 1 21 C0.67 20.34 0.34 19.68 0 19 C-0.66 19 -1.32 19 -2 19 C-2.05394705 16.39555652 -2.09364469 13.79223002 -2.125 11.1875 C-2.14175781 10.44951172 -2.15851563 9.71152344 -2.17578125 8.95117188 C-2.21074628 5.08753574 -2.19397555 3.29096332 0 0 Z " fill="#340606" transform="translate(104,252)"/>
<path d="M0 0 C1.32 0 2.64 0 4 0 C3.690625 1.27875 3.38125 2.5575 3.0625 3.875 C1.93885167 8.88758722 1.40577419 13.88510956 1 19 C0.01 19 -0.98 19 -2 19 C-2.05394705 16.39555652 -2.09364469 13.79223002 -2.125 11.1875 C-2.14175781 10.44951172 -2.15851563 9.71152344 -2.17578125 8.95117188 C-2.21074628 5.08753574 -2.19397555 3.29096332 0 0 Z " fill="#330404" transform="translate(157,252)"/>
<path d="M0 0 C0.99 0 1.98 0 3 0 C3.05407567 2.58361518 3.093707 5.16609255 3.125 7.75 C3.14175781 8.47960937 3.15851563 9.20921875 3.17578125 9.9609375 C3.21072239 13.8044624 3.17499684 16.74606772 1 20 C1 19.34 1 18.68 1 18 C0.34 18 -0.32 18 -1 18 C-1.02707139 15.75006641 -1.04642829 13.50003905 -1.0625 11.25 C-1.07410156 9.99703125 -1.08570312 8.7440625 -1.09765625 7.453125 C-1.02021027 4.71463499 -0.82780815 2.58119707 0 0 Z " fill="#AE0707" transform="translate(106,257)"/>
<path d="M0 0 C1.32 0.33 2.64 0.66 4 1 C3.86722656 1.54527344 3.73445313 2.09054688 3.59765625 2.65234375 C2.32210753 8.09902987 1.53036157 13.43120352 1 19 C0.01 19 -0.98 19 -2 19 C-2.05428973 16.77110504 -2.09292338 14.54182529 -2.125 12.3125 C-2.15980469 10.45044922 -2.15980469 10.45044922 -2.1953125 8.55078125 C-2.01032021 5.18762143 -1.45767895 3.0014413 0 0 Z " fill="#3D1212" transform="translate(459,252)"/>
<path d="M0 0 C1.32 0.33 2.64 0.66 4 1 C3.67 3.64 3.34 6.28 3 9 C1.56260487 9.02712066 0.12506137 9.04645067 -1.3125 9.0625 C-2.51326172 9.07990234 -2.51326172 9.07990234 -3.73828125 9.09765625 C-6 9 -6 9 -9 8 C-9 6.68 -9 5.36 -9 4 C-6.36 4.33 -3.72 4.66 -1 5 C-0.67 3.35 -0.34 1.7 0 0 Z " fill="#4D0F0F" transform="translate(457,238)"/>
<path d="M0 0 C1.32 0.33 2.64 0.66 4 1 C3.34 3.31 2.68 5.62 2 8 C-2.62 7.01 -7.24 6.02 -12 5 C-12 4.01 -12 3.02 -12 2 C-4.375 2.875 -4.375 2.875 -1 4 C-0.67 2.68 -0.34 1.36 0 0 Z " fill="#3C0202" transform="translate(139,279)"/>
<path d="M0 0 C1.65 0.33 3.3 0.66 5 1 C3.35 4.63 1.7 8.26 0 12 C-1.32 11.67 -2.64 11.34 -4 11 C-4 5.95749572 -2.59750368 4.22094347 0 0 Z " fill="#390606" transform="translate(219,247)"/>
<path d="M0 0 C0.33 0.66 0.66 1.32 1 2 C1.66 2.33 2.32 2.66 3 3 C2.34 4.98 1.68 6.96 1 9 C-0.98260599 8.57835981 -2.96107245 8.13721222 -4.9375 7.6875 C-6.03964844 7.44386719 -7.14179688 7.20023437 -8.27734375 6.94921875 C-9.17582031 6.63597656 -10.07429688 6.32273437 -11 6 C-11.33 5.01 -11.66 4.02 -12 3 C-7.05 3.99 -7.05 3.99 -2 5 C-2 3.68 -2 2.36 -2 1 C-1.34 0.67 -0.68 0.34 0 0 Z " fill="#390505" transform="translate(321,278)"/>
<path d="M0 0 C1.32 0.33 2.64 0.66 4 1 C4 5.62 4 10.24 4 15 C2.68 15 1.36 15 0 15 C0 10.05 0 5.1 0 0 Z " fill="#490404" transform="translate(247,256)"/>
<path d="M0 0 C0.33 0.66 0.66 1.32 1 2 C1.99 2.33 2.98 2.66 4 3 C3.34 4.98 2.68 6.96 2 9 C0.01739401 8.57835981 -1.96107245 8.13721222 -3.9375 7.6875 C-5.03964844 7.44386719 -6.14179687 7.20023437 -7.27734375 6.94921875 C-8.17582031 6.63597656 -9.07429688 6.32273437 -10 6 C-10.33 5.01 -10.66 4.02 -11 3 C-6.05 3.99 -6.05 3.99 -1 5 C-0.67 3.35 -0.34 1.7 0 0 Z " fill="#390505" transform="translate(122,278)"/>
<path d="M0 0 C1.32 0.33 2.64 0.66 4 1 C4 5.62 4 10.24 4 15 C2.68 14.67 1.36 14.34 0 14 C0 9.38 0 4.76 0 0 Z " fill="#4E2626" transform="translate(354,256)"/>
<path d="M0 0 C0.33 0 0.66 0 1 0 C1 7.26 1 14.52 1 22 C0.01 21.67 -0.98 21.34 -2 21 C-3.65583997 17.3832969 -2.70972732 13.74623758 -2.125 9.9375 C-1.94195312 8.70902344 -1.75890625 7.48054688 -1.5703125 6.21484375 C-1 3 -1 3 0 0 Z " fill="#A20303" transform="translate(160,254)"/>
<path d="M0 0 C1.32 0.33 2.64 0.66 4 1 C3.125 6.75 3.125 6.75 2 9 C-3.94 8.01 -3.94 8.01 -10 7 C-9.67 6.01 -9.34 5.02 -9 4 C-6.36 4.33 -3.72 4.66 -1 5 C-0.67 3.35 -0.34 1.7 0 0 Z " fill="#380303" transform="translate(102,238)"/>
<path d="M0 0 C4.39158329 1.4638611 4.87947433 3.97831338 7 8 C2.94393835 7.53199289 -0.46588679 7.12046792 -4 5 C-3 2 -3 2 0 0 Z " fill="#611010" transform="translate(389,264)"/>
<path d="M0 0 C4.875 4.625 4.875 4.625 6 8 C-1.75 7.125 -1.75 7.125 -4 6 C-3.6875 4.125 -3.6875 4.125 -3 2 C-2.01 1.34 -1.02 0.68 0 0 Z " fill="#360606" transform="translate(204,264)"/>
<path d="M0 0 C0.99 0.33 1.98 0.66 3 1 C3 6.61 3 12.22 3 18 C2.67 17.01 2.34 16.02 2 15 C1.34 15 0.68 15 0 15 C0 10.05 0 5.1 0 0 Z " fill="#2D0000" transform="translate(424,256)"/>
<path d="M0 0 C4.29 0.66 8.58 1.32 13 2 C11.46218054 5.07563891 9.08755777 5.70322574 6 7 C3 6 3 6 1.3125 2.9375 C0.879375 1.968125 0.44625 0.99875 0 0 Z " fill="#641F1F" transform="translate(388,252)"/>
<path d="M0 0 C3.37705625 0.53725895 6.696686 1.11064623 10 2 C9.67 2.99 9.34 3.98 9 5 C6.4375 6.1875 6.4375 6.1875 4 7 C0 2.25 0 2.25 0 0 Z " fill="#5D1414" transform="translate(203,252)"/>
<path d="M0 0 C0.33 0 0.66 0 1 0 C1.23668569 7.03482474 0.7879537 13.1834265 -1 20 C-1.66 19.67 -2.32 19.34 -3 19 C-2.69277348 16.02020106 -2.37948528 13.04126241 -2.0625 10.0625 C-1.97548828 9.21236328 -1.88847656 8.36222656 -1.79882812 7.48632812 C-1.71181641 6.67744141 -1.62480469 5.86855469 -1.53515625 5.03515625 C-1.456604 4.2862915 -1.37805176 3.53742676 -1.29711914 2.76586914 C-1 1 -1 1 0 0 Z " fill="#7F1616" transform="translate(142,260)"/>
<path d="M0 0 C0.99 0.66 1.98 1.32 3 2 C3 2.99 3 3.98 3 5 C1.5629191 5.05422947 0.12524538 5.09289723 -1.3125 5.125 C-2.11300781 5.14820313 -2.91351563 5.17140625 -3.73828125 5.1953125 C-6 5 -6 5 -9 3 C-7.56879256 2.44191911 -6.12969645 1.90403538 -4.6875 1.375 C-3.88699219 1.07335937 -3.08648437 0.77171875 -2.26171875 0.4609375 C-1.51535156 0.30882812 -0.76898438 0.15671875 0 0 Z " fill="#441818" transform="translate(183,267)"/>
<path d="M0 0 C0.33 0.66 0.66 1.32 1 2 C2.65 2 4.3 2 6 2 C5.34 3.32 4.68 4.64 4 6 C3.34 6 2.68 6 2 6 C1.67 8.64 1.34 11.28 1 14 C0.67 14 0.34 14 0 14 C0 9.38 0 4.76 0 0 Z " fill="#B41212" transform="translate(88,239)"/>
<path d="M0 0 C1.65 0.99 3.3 1.98 5 3 C4.01 3.495 4.01 3.495 3 4 C3 5.65 3 7.3 3 9 C2.01 9 1.02 9 0 9 C0 6.03 0 3.06 0 0 Z " fill="#330808" transform="translate(319,262)"/>
<path d="M0 0 C0.66 0 1.32 0 2 0 C2 2.31 2 4.62 2 7 C1.34 7 0.68 7 0 7 C-0.33 7.66 -0.66 8.32 -1 9 C-1.09765625 2.84765625 -1.09765625 2.84765625 -1 1 C-0.67 0.67 -0.34 0.34 0 0 Z " fill="#340505" transform="translate(425,237)"/>
<path d="M0 0 C1.5 1.375 1.5 1.375 3 3 C3 3.66 3 4.32 3 5 C0.36 4.67 -2.28 4.34 -5 4 C-4.360625 3.71125 -3.72125 3.4225 -3.0625 3.125 C-0.84793921 2.17176549 -0.84793921 2.17176549 0 0 Z " fill="#B02525" transform="translate(207,267)"/>
</svg>
